<?xml version="1.0" encoding="UTF-8" standalone="no"?>
<!-- Created with Inkscape (http://www.inkscape.org/) -->

<svg
   width="210mm"
   height="297mm"
   viewBox="0 0 210 297"
   version="1.1"
   id="svg5"
   inkscape:version="1.2.2 (b0a8486541, 2022-12-01)"
   sodipodi:docname="portraits.svg"
   xmlns:inkscape="http://www.inkscape.org/namespaces/inkscape"
   xmlns:sodipodi="http://sodipodi.sourceforge.net/DTD/sodipodi-0.dtd"
   xmlns="http://www.w3.org/2000/svg"
   xmlns:svg="http://www.w3.org/2000/svg">
  <sodipodi:namedview
     id="namedview7"
     pagecolor="#ffffff"
     bordercolor="#000000"
     borderopacity="0.25"
     inkscape:showpageshadow="2"
     inkscape:pageopacity="0.0"
     inkscape:pagecheckerboard="0"
     inkscape:deskcolor="#d1d1d1"
     inkscape:document-units="mm"
     showgrid="false"
     inkscape:zoom="1.1893044"
     inkscape:cx="270.7465"
     inkscape:cy="340.11478"
     inkscape:window-width="1680"
     inkscape:window-height="986"
     inkscape:window-x="0"
     inkscape:window-y="27"
     inkscape:window-maximized="1"
     inkscape:current-layer="layer1" />
  <defs
     id="defs2" />
  <g
     inkscape:label="Layer 1"
     inkscape:groupmode="layer"
     id="layer1">
    <circle
       style="fill:#000000;fill-opacity:1;stroke:none;stroke-width:0.1"
       id="path788"
       cx="104.80119"
       cy="84.754196"
       r="7.7768741"
       inkscape:export-filename="portrait1.png"
       inkscape:export-xdpi="39.931461"
       inkscape:export-ydpi="39.931461" />
    <path
       id="circle1624"
       style="stroke-width:0.149558"
       d="m 116.43213,103.26596 c 0,6.42359 -5.20735,0.81326 -11.63094,0.81326 -6.423592,0 -11.630941,5.61033 -11.630942,-0.81326 0,-6.423591 5.20735,-11.630941 11.630942,-11.630941 6.42359,-10e-7 11.63094,5.207349 11.63094,11.630941 z"
       sodipodi:nodetypes="sssss" />
    <circle
       style="fill:none;fill-opacity:1;stroke:#000000;stroke-width:1;stroke-dasharray:none;stroke-opacity:1"
       id="path2449"
       cx="104.87069"
       cy="91.879486"
       r="20.315683" />
    <circle
       style="fill:#000000;fill-opacity:1;stroke:none;stroke-width:0.1"
       id="circle2451"
       cx="155.25557"
       cy="84.754196"
       r="7.7768741"
       inkscape:export-filename="portrait2.png"
       inkscape:export-xdpi="39.931461"
       inkscape:export-ydpi="39.931461" />
    <path
       id="path2453"
       style="stroke-width:0.149558"
       d="m 166.88651,103.26596 c 0,6.42359 -5.20735,0.81326 -11.63094,0.81326 -6.42359,0 -11.63094,5.61033 -11.63094,-0.81326 0,-6.423591 5.20735,-11.630941 11.63094,-11.630941 6.42359,-10e-7 11.63094,5.207349 11.63094,11.630941 z"
       sodipodi:nodetypes="sssss" />
    <circle
       style="fill:none;fill-opacity:1;stroke:#000000;stroke-width:1;stroke-dasharray:none;stroke-opacity:1"
       id="circle2455"
       cx="155.32507"
       cy="91.879486"
       r="20.315683" />
    <path
       style="fill:none;fill-opacity:1;stroke:#000000;stroke-width:2.1;stroke-dasharray:none;stroke-opacity:1"
       d="m 152.6311,77.787896 c -0.10649,0.181702 -0.66464,0.1461 -0.80229,0.283744 -0.0259,0.02588 0.0328,0.09363 0,0.109839 -0.0997,0.04924 -0.23421,-0.04975 -0.3337,0 -0.0469,0.02344 -0.0604,0.09852 -0.11124,0.111234 -0.10791,0.02698 -0.23032,-0.04106 -0.3337,0 -0.61687,0.244975 -0.70323,1.215713 -1.0072,1.678752 -0.15953,0.243023 -0.2708,0.525433 -0.47767,0.729681 -0.0644,0.06359 -0.1772,0.06028 -0.2416,0.12386 -0.0594,0.05868 -0.0533,0.164319 -0.11124,0.224512 -0.20086,0.20883 -3.02206,-0.396695 -3.4642,0.0021 -0.26387,0.237959 -0.23958,0.575935 -0.33512,0.862455 -0.12275,0.368107 -0.40439,0.697772 -0.56873,1.027954 -0.20247,0.406812 -0.24547,1.130802 -0.33575,1.583856 -0.0377,0.189357 0.0878,0.559618 0,0.734576 -0.0546,0.108792 -0.24317,0.147098 -0.31702,0.201917 -0.3587,0.266301 -0.66596,0.709552 -1.03857,0.940012 -0.0652,0.04033 -0.17099,-0.04893 -0.23002,0 -0.20109,0.166669 -0.32234,0.411728 -0.49893,0.604168 -0.30022,0.327184 -0.86289,0.700066 -1.09973,1.096277 -0.5117,0.856065 0.19526,-0.05946 -0.21927,0.55957 -0.17881,0.267025 -0.13451,-0.09298 -0.2245,0.446966 -0.0146,0.0875 -0.0496,0.675513 0,0.775965 0.0537,0.108743 0.16033,0.07712 0.10856,0.213521 -0.0497,0.130868 -0.16652,0.119261 -0.16652,0.289118"
       id="path2574" />
    <path
       style="fill:none;fill-opacity:1;stroke:#000000;stroke-width:2.1;stroke-dasharray:none;stroke-opacity:1"
       d="m 151.02944,79.460692 c 0.0677,-0.258823 -0.78548,-0.330914 -0.92784,-0.402098 -0.0332,-0.01659 0.0166,-0.07807 0,-0.111233 -0.0373,-0.07465 -0.25758,-0.294405 -0.33231,-0.332317 -0.10148,-0.05148 -0.33266,0.03314 -0.43305,0 -0.0316,-0.01042 -0.2056,-0.203459 -0.23532,-0.22311 -0.0692,-0.04573 -0.17648,-0.04225 -0.22247,-0.111233 -0.13651,-0.204764 0.11985,-0.222105 -0.33099,-0.440187 -0.41797,-0.202184 -0.81117,-0.03849 -1.24401,-0.113276 -0.30202,-0.05219 -0.47686,-0.231244 -0.80096,-0.230064 -0.0991,2.65e-4 -0.69736,1.000805 -0.447,1.180209"
       id="path2576" />
    <path
       style="fill:none;fill-opacity:1;stroke:#000000;stroke-width:2.1;stroke-dasharray:none;stroke-opacity:1"
       d="m 159.69842,79.239588 c 0.53875,-0.390308 1.03038,-0.855729 1.61625,-1.170922 0.2564,-0.137943 0.98717,0.119042 1.20184,0.333704 0.21222,0.212227 0.35019,0.5628 0.67351,0.67148 0.0694,0.02334 0.14867,-0.01786 0.21969,0 0.33085,0.08324 0.66617,0.278874 1.01146,0.335741 0.42184,0.06947 0.82781,0.05323 1.23984,0.225829 1.24729,0.522492 2.08022,1.405329 2.83902,2.506779 0.26265,0.381252 0.85935,1.057722 0.96913,1.517177 0.0739,0.309382 0.0554,0.635894 0.12732,0.94574 0.1291,0.555921 0.33993,0.992026 0.33993,1.564944 0,0.174371 0.089,0.406363 -0.11123,0.406363"
       id="path2578" />
    <path
       style="fill:none;fill-opacity:1;stroke:#000000;stroke-width:2.1;stroke-dasharray:none;stroke-opacity:1"
       d="m 162.12917,83.191759 c 0.83554,0.18774 1.76566,0.405328 2.51878,0.837478 0.0322,0.01844 -0.0166,0.07807 0,0.111233 0.33866,0.677307 0.61032,1.131023 0.67755,1.93784 0.049,0.587825 -0.20125,1.510967 0.12346,2.036845 0.26803,0.434102 0.66065,0.174746 0.98265,0.335751 0.31443,0.157215 0.70362,0.481184 0.96508,0.71778 0.36702,0.332131 0.73826,0.663408 1.06252,1.037405 0.54642,0.630221 0.90692,1.441082 1.49522,2.029507"
       id="path2580" />
    <path
       style="fill:none;fill-opacity:1;stroke:#000000;stroke-width:2.1;stroke-dasharray:none;stroke-opacity:1"
       d="m 149.84333,84.947669 c -0.95645,0.422857 -1.97409,1.062209 -1.80402,2.268228 0.0709,0.503147 0.52712,1.003988 0,1.482048 -0.54338,0.492805 -1.33269,0.912709 -1.9406,1.321974 -0.47222,0.317916 -1.00636,0.725273 -1.50213,0.998715 -0.0325,0.01791 -0.0846,-0.02577 -0.11123,0 -0.0258,0.02492 0.0236,0.08053 0,0.107524 -0.0351,0.04019 -0.35485,0.04717 -0.38627,0.05789 -0.556,0.279358 -0.29154,0.173487 -0.78494,0.337952"
       id="path2582" />
    <path
       style="fill:none;fill-opacity:1;stroke:#000000;stroke-width:2.1;stroke-dasharray:none;stroke-opacity:1"
       d="m 153.7657,78.28608 c -0.15628,-0.175564 -0.32495,-0.340836 -0.46884,-0.526693 -0.0594,-0.07671 -0.0917,-0.171008 -0.13751,-0.256513 -0.11191,-0.111234 -0.23683,-0.210757 -0.33573,-0.333704 -0.063,-0.07829 -0.16721,-0.391699 -0.22244,-0.446936 -0.0586,-0.05863 -0.16385,-0.05261 -0.22247,-0.111237 -0.0262,-0.02622 0.0253,-0.08416 0,-0.111233 -0.10307,-0.110186 -0.43724,-0.04315 -0.57066,-0.107529 -0.12116,-0.05845 -0.24203,-0.126347 -0.33781,-0.220808 -0.0257,-0.02532 0.0323,-0.0922 0,-0.108146 -0.53608,-0.264277 0.0219,0.241218 -0.3306,-0.111234"
       id="path2584" />
    <path
       style="fill:none;fill-opacity:1;stroke:#000000;stroke-width:2.1;stroke-dasharray:none;stroke-opacity:1"
       d="m 156.92196,78.898709 c -0.0411,-0.177519 0.10126,-0.960432 0.32914,-1.071657 0.36383,-0.177576 0.27304,-0.02955 0.56637,-0.224502 0.1298,-0.08626 0.28405,-0.26806 0.42753,-0.316299 0.0573,-0.01926 0.13481,0.03866 0.18123,0 0.10391,-0.08654 0.1287,-0.242467 0.2245,-0.337918 0.22909,-0.228261 0.61243,-0.418766 0.90239,-0.562432"
       id="path2586" />
    <path
       style="fill:none;fill-opacity:1;stroke:#000000;stroke-width:2.1;stroke-dasharray:none;stroke-opacity:1"
       d="m 159.48687,82.31326 c 0.10806,-0.165332 0.40996,-0.693602 0.6305,-0.788775 0.49764,-0.214752 1.97499,0.241683 2.33976,0.465034 0.2836,0.173651 0.69872,0.698018 1.02783,0.698018"
       id="path2588" />
    <path
       style="fill:none;fill-opacity:1;stroke:#000000;stroke-width:2.1;stroke-dasharray:none;stroke-opacity:1"
       d="m 154.89949,77.420255 c 0.64083,-0.08256 1.00693,-0.859872 1.66436,-0.856192 0.23524,0.0013 0.46166,0.09569 0.6959,0.117343 0.56815,0.05251 1.16868,-0.08538 1.73223,0 2.94411,0.446053 -0.54936,-0.0038 1.83165,0.476506 0.18306,0.03693 0.39182,0.08069 0.56023,0 0.11793,-0.0565 0.066,-0.154799 0.21075,-0.104227 0.26185,0.09147 0.21748,0.516118 0.55335,0.516118"
       id="path2590" />
    <path
       style="fill:none;fill-opacity:1;stroke:#000000;stroke-width:2.1;stroke-dasharray:none;stroke-opacity:1"
       d="m 168.43734,83.028995 c 0.24272,0.905354 0.68032,2.480162 1.26198,3.366866 0.53768,0.819658 0.85123,0.294999 0.85123,1.332909"
       id="path2592" />
    <circle
       style="fill:none;fill-opacity:1;stroke:#000000;stroke-width:1;stroke-dasharray:none;stroke-opacity:1"
       id="circle3372"
       cx="54.187119"
       cy="91.879486"
       r="20.315683"
       inkscape:export-filename="portrait0.png"
       inkscape:export-xdpi="39.047482"
       inkscape:export-ydpi="39.047482" />
  </g>
</svg>
